%TF.GenerationSoftware,KiCad,Pcbnew,(5.1.9)-1*%
%TF.CreationDate,2021-03-15T23:27:25+01:00*%
%TF.ProjectId,fendt-teensy-aog-smd,66656e64-742d-4746-9565-6e73792d616f,rev?*%
%TF.SameCoordinates,Original*%
%TF.FileFunction,Soldermask,Top*%
%TF.FilePolarity,Negative*%
%FSLAX46Y46*%
G04 Gerber Fmt 4.6, Leading zero omitted, Abs format (unit mm)*
G04 Created by KiCad (PCBNEW (5.1.9)-1) date 2021-03-15 23:27:25*
%MOMM*%
%LPD*%
G01*
G04 APERTURE LIST*
%ADD10R,4.600000X1.100000*%
%ADD11R,9.400000X10.800000*%
%ADD12C,1.600000*%
%ADD13R,1.600000X1.600000*%
%ADD14C,1.400000*%
%ADD15O,1.700000X1.950000*%
%ADD16R,3.500000X2.300000*%
%ADD17R,3.500000X1.800000*%
%ADD18C,3.200000*%
%ADD19R,2.500000X2.500000*%
%ADD20C,2.500000*%
%ADD21C,3.500000*%
%ADD22R,1.524000X1.524000*%
%ADD23C,1.524000*%
%ADD24O,2.600000X2.000000*%
%ADD25O,1.700000X2.000000*%
%ADD26R,4.000000X3.000000*%
%ADD27R,0.900000X0.800000*%
G04 APERTURE END LIST*
D10*
%TO.C,U2*%
X152841000Y-87220000D03*
X152841000Y-85520000D03*
X152841000Y-83820000D03*
X152841000Y-82120000D03*
X152841000Y-80420000D03*
D11*
X143691000Y-83820000D03*
%TD*%
D12*
%TO.C,U1*%
X91440000Y-52832000D03*
X91440000Y-55372000D03*
X91440000Y-57912000D03*
X91440000Y-60452000D03*
X91440000Y-62992000D03*
X91440000Y-65532000D03*
X91440000Y-68072000D03*
X91440000Y-70612000D03*
X91440000Y-73152000D03*
X91440000Y-75692000D03*
X91440000Y-78232000D03*
X91440000Y-80772000D03*
X91440000Y-83312000D03*
X91440000Y-85852000D03*
D13*
X76200000Y-52832000D03*
D12*
X76200000Y-55372000D03*
X76200000Y-57912000D03*
X76200000Y-60452000D03*
X76200000Y-62992000D03*
X76200000Y-65532000D03*
X76200000Y-68072000D03*
X76200000Y-70612000D03*
X76200000Y-73152000D03*
X76200000Y-75692000D03*
X76200000Y-78232000D03*
X76200000Y-80772000D03*
X76200000Y-83312000D03*
X91440000Y-88392000D03*
X91440000Y-90932000D03*
X91440000Y-93472000D03*
X91440000Y-96012000D03*
X91440000Y-98552000D03*
X91440000Y-101092000D03*
X91440000Y-103632000D03*
X91440000Y-106172000D03*
X91440000Y-108712000D03*
X91440000Y-111252000D03*
X76200000Y-111252000D03*
X76200000Y-108712000D03*
X76200000Y-106172000D03*
X76200000Y-103632000D03*
X76200000Y-85852000D03*
X76200000Y-88392000D03*
X76200000Y-90932000D03*
X76200000Y-101092000D03*
X76200000Y-98552000D03*
X76200000Y-96012000D03*
X76200000Y-93472000D03*
%TD*%
D14*
%TO.C,U3*%
X99060000Y-88265000D03*
X101600000Y-88265000D03*
X99060000Y-90805000D03*
X101600000Y-90805000D03*
X99060000Y-93345000D03*
X101600000Y-93345000D03*
X99060000Y-95885000D03*
X101600000Y-95885000D03*
X99060000Y-98425000D03*
X101600000Y-98425000D03*
X99060000Y-100965000D03*
X101600000Y-100965000D03*
X99060000Y-103505000D03*
X101600000Y-103505000D03*
X99060000Y-106045000D03*
X101600000Y-106045000D03*
X99060000Y-108585000D03*
X101600000Y-108585000D03*
X99060000Y-111125000D03*
X101600000Y-111125000D03*
X124460000Y-88265000D03*
X127000000Y-88265000D03*
X124460000Y-90805000D03*
X127000000Y-90805000D03*
X124460000Y-93345000D03*
X127000000Y-93345000D03*
X124460000Y-95885000D03*
X127000000Y-95885000D03*
X124460000Y-98425000D03*
X127000000Y-98425000D03*
X124460000Y-100965000D03*
X127000000Y-100965000D03*
X124460000Y-103505000D03*
X127000000Y-103505000D03*
X124460000Y-106045000D03*
X127000000Y-106045000D03*
X124460000Y-108585000D03*
X127000000Y-108585000D03*
X127000000Y-111125000D03*
X124460000Y-111125000D03*
%TD*%
%TO.C,J9*%
G36*
G01*
X110070000Y-54901000D02*
X110070000Y-56351000D01*
G75*
G02*
X109820000Y-56601000I-250000J0D01*
G01*
X108620000Y-56601000D01*
G75*
G02*
X108370000Y-56351000I0J250000D01*
G01*
X108370000Y-54901000D01*
G75*
G02*
X108620000Y-54651000I250000J0D01*
G01*
X109820000Y-54651000D01*
G75*
G02*
X110070000Y-54901000I0J-250000D01*
G01*
G37*
D15*
X106720000Y-55626000D03*
X104220000Y-55626000D03*
X101720000Y-55626000D03*
X99220000Y-55626000D03*
X96720000Y-55626000D03*
%TD*%
%TO.C,R2*%
G36*
G01*
X96970001Y-84690000D02*
X96069999Y-84690000D01*
G75*
G02*
X95820000Y-84440001I0J249999D01*
G01*
X95820000Y-83739999D01*
G75*
G02*
X96069999Y-83490000I249999J0D01*
G01*
X96970001Y-83490000D01*
G75*
G02*
X97220000Y-83739999I0J-249999D01*
G01*
X97220000Y-84440001D01*
G75*
G02*
X96970001Y-84690000I-249999J0D01*
G01*
G37*
G36*
G01*
X96970001Y-86690000D02*
X96069999Y-86690000D01*
G75*
G02*
X95820000Y-86440001I0J249999D01*
G01*
X95820000Y-85739999D01*
G75*
G02*
X96069999Y-85490000I249999J0D01*
G01*
X96970001Y-85490000D01*
G75*
G02*
X97220000Y-85739999I0J-249999D01*
G01*
X97220000Y-86440001D01*
G75*
G02*
X96970001Y-86690000I-249999J0D01*
G01*
G37*
%TD*%
%TO.C,R3*%
G36*
G01*
X161182000Y-55187001D02*
X161182000Y-54286999D01*
G75*
G02*
X161431999Y-54037000I249999J0D01*
G01*
X162132001Y-54037000D01*
G75*
G02*
X162382000Y-54286999I0J-249999D01*
G01*
X162382000Y-55187001D01*
G75*
G02*
X162132001Y-55437000I-249999J0D01*
G01*
X161431999Y-55437000D01*
G75*
G02*
X161182000Y-55187001I0J249999D01*
G01*
G37*
G36*
G01*
X159182000Y-55187001D02*
X159182000Y-54286999D01*
G75*
G02*
X159431999Y-54037000I249999J0D01*
G01*
X160132001Y-54037000D01*
G75*
G02*
X160382000Y-54286999I0J-249999D01*
G01*
X160382000Y-55187001D01*
G75*
G02*
X160132001Y-55437000I-249999J0D01*
G01*
X159431999Y-55437000D01*
G75*
G02*
X159182000Y-55187001I0J249999D01*
G01*
G37*
%TD*%
%TO.C,R4*%
G36*
G01*
X161182000Y-69792001D02*
X161182000Y-68891999D01*
G75*
G02*
X161431999Y-68642000I249999J0D01*
G01*
X162132001Y-68642000D01*
G75*
G02*
X162382000Y-68891999I0J-249999D01*
G01*
X162382000Y-69792001D01*
G75*
G02*
X162132001Y-70042000I-249999J0D01*
G01*
X161431999Y-70042000D01*
G75*
G02*
X161182000Y-69792001I0J249999D01*
G01*
G37*
G36*
G01*
X159182000Y-69792001D02*
X159182000Y-68891999D01*
G75*
G02*
X159431999Y-68642000I249999J0D01*
G01*
X160132001Y-68642000D01*
G75*
G02*
X160382000Y-68891999I0J-249999D01*
G01*
X160382000Y-69792001D01*
G75*
G02*
X160132001Y-70042000I-249999J0D01*
G01*
X159431999Y-70042000D01*
G75*
G02*
X159182000Y-69792001I0J249999D01*
G01*
G37*
%TD*%
%TO.C,R5*%
G36*
G01*
X129724999Y-100730000D02*
X130625001Y-100730000D01*
G75*
G02*
X130875000Y-100979999I0J-249999D01*
G01*
X130875000Y-101680001D01*
G75*
G02*
X130625001Y-101930000I-249999J0D01*
G01*
X129724999Y-101930000D01*
G75*
G02*
X129475000Y-101680001I0J249999D01*
G01*
X129475000Y-100979999D01*
G75*
G02*
X129724999Y-100730000I249999J0D01*
G01*
G37*
G36*
G01*
X129724999Y-98730000D02*
X130625001Y-98730000D01*
G75*
G02*
X130875000Y-98979999I0J-249999D01*
G01*
X130875000Y-99680001D01*
G75*
G02*
X130625001Y-99930000I-249999J0D01*
G01*
X129724999Y-99930000D01*
G75*
G02*
X129475000Y-99680001I0J249999D01*
G01*
X129475000Y-98979999D01*
G75*
G02*
X129724999Y-98730000I249999J0D01*
G01*
G37*
%TD*%
%TO.C,R6*%
G36*
G01*
X132264999Y-100730000D02*
X133165001Y-100730000D01*
G75*
G02*
X133415000Y-100979999I0J-249999D01*
G01*
X133415000Y-101680001D01*
G75*
G02*
X133165001Y-101930000I-249999J0D01*
G01*
X132264999Y-101930000D01*
G75*
G02*
X132015000Y-101680001I0J249999D01*
G01*
X132015000Y-100979999D01*
G75*
G02*
X132264999Y-100730000I249999J0D01*
G01*
G37*
G36*
G01*
X132264999Y-98730000D02*
X133165001Y-98730000D01*
G75*
G02*
X133415000Y-98979999I0J-249999D01*
G01*
X133415000Y-99680001D01*
G75*
G02*
X133165001Y-99930000I-249999J0D01*
G01*
X132264999Y-99930000D01*
G75*
G02*
X132015000Y-99680001I0J249999D01*
G01*
X132015000Y-98979999D01*
G75*
G02*
X132264999Y-98730000I249999J0D01*
G01*
G37*
%TD*%
%TO.C,R9*%
G36*
G01*
X161182000Y-62807001D02*
X161182000Y-61906999D01*
G75*
G02*
X161431999Y-61657000I249999J0D01*
G01*
X162132001Y-61657000D01*
G75*
G02*
X162382000Y-61906999I0J-249999D01*
G01*
X162382000Y-62807001D01*
G75*
G02*
X162132001Y-63057000I-249999J0D01*
G01*
X161431999Y-63057000D01*
G75*
G02*
X161182000Y-62807001I0J249999D01*
G01*
G37*
G36*
G01*
X159182000Y-62807001D02*
X159182000Y-61906999D01*
G75*
G02*
X159431999Y-61657000I249999J0D01*
G01*
X160132001Y-61657000D01*
G75*
G02*
X160382000Y-61906999I0J-249999D01*
G01*
X160382000Y-62807001D01*
G75*
G02*
X160132001Y-63057000I-249999J0D01*
G01*
X159431999Y-63057000D01*
G75*
G02*
X159182000Y-62807001I0J249999D01*
G01*
G37*
%TD*%
D13*
%TO.C,C1*%
X161036000Y-91694000D03*
D12*
X161036000Y-86694000D03*
%TD*%
D13*
%TO.C,C2*%
X133350000Y-84074000D03*
D12*
X133350000Y-80574000D03*
%TD*%
%TO.C,C3*%
G36*
G01*
X136753000Y-68613000D02*
X136753000Y-69563000D01*
G75*
G02*
X136503000Y-69813000I-250000J0D01*
G01*
X135828000Y-69813000D01*
G75*
G02*
X135578000Y-69563000I0J250000D01*
G01*
X135578000Y-68613000D01*
G75*
G02*
X135828000Y-68363000I250000J0D01*
G01*
X136503000Y-68363000D01*
G75*
G02*
X136753000Y-68613000I0J-250000D01*
G01*
G37*
G36*
G01*
X134678000Y-68613000D02*
X134678000Y-69563000D01*
G75*
G02*
X134428000Y-69813000I-250000J0D01*
G01*
X133753000Y-69813000D01*
G75*
G02*
X133503000Y-69563000I0J250000D01*
G01*
X133503000Y-68613000D01*
G75*
G02*
X133753000Y-68363000I250000J0D01*
G01*
X134428000Y-68363000D01*
G75*
G02*
X134678000Y-68613000I0J-250000D01*
G01*
G37*
%TD*%
%TO.C,C4*%
G36*
G01*
X148557000Y-72872000D02*
X147607000Y-72872000D01*
G75*
G02*
X147357000Y-72622000I0J250000D01*
G01*
X147357000Y-71947000D01*
G75*
G02*
X147607000Y-71697000I250000J0D01*
G01*
X148557000Y-71697000D01*
G75*
G02*
X148807000Y-71947000I0J-250000D01*
G01*
X148807000Y-72622000D01*
G75*
G02*
X148557000Y-72872000I-250000J0D01*
G01*
G37*
G36*
G01*
X148557000Y-70797000D02*
X147607000Y-70797000D01*
G75*
G02*
X147357000Y-70547000I0J250000D01*
G01*
X147357000Y-69872000D01*
G75*
G02*
X147607000Y-69622000I250000J0D01*
G01*
X148557000Y-69622000D01*
G75*
G02*
X148807000Y-69872000I0J-250000D01*
G01*
X148807000Y-70547000D01*
G75*
G02*
X148557000Y-70797000I-250000J0D01*
G01*
G37*
%TD*%
%TO.C,C5*%
G36*
G01*
X148557000Y-63812000D02*
X147607000Y-63812000D01*
G75*
G02*
X147357000Y-63562000I0J250000D01*
G01*
X147357000Y-62887000D01*
G75*
G02*
X147607000Y-62637000I250000J0D01*
G01*
X148557000Y-62637000D01*
G75*
G02*
X148807000Y-62887000I0J-250000D01*
G01*
X148807000Y-63562000D01*
G75*
G02*
X148557000Y-63812000I-250000J0D01*
G01*
G37*
G36*
G01*
X148557000Y-65887000D02*
X147607000Y-65887000D01*
G75*
G02*
X147357000Y-65637000I0J250000D01*
G01*
X147357000Y-64962000D01*
G75*
G02*
X147607000Y-64712000I250000J0D01*
G01*
X148557000Y-64712000D01*
G75*
G02*
X148807000Y-64962000I0J-250000D01*
G01*
X148807000Y-65637000D01*
G75*
G02*
X148557000Y-65887000I-250000J0D01*
G01*
G37*
%TD*%
%TO.C,C6*%
G36*
G01*
X148557000Y-58267000D02*
X147607000Y-58267000D01*
G75*
G02*
X147357000Y-58017000I0J250000D01*
G01*
X147357000Y-57342000D01*
G75*
G02*
X147607000Y-57092000I250000J0D01*
G01*
X148557000Y-57092000D01*
G75*
G02*
X148807000Y-57342000I0J-250000D01*
G01*
X148807000Y-58017000D01*
G75*
G02*
X148557000Y-58267000I-250000J0D01*
G01*
G37*
G36*
G01*
X148557000Y-56192000D02*
X147607000Y-56192000D01*
G75*
G02*
X147357000Y-55942000I0J250000D01*
G01*
X147357000Y-55267000D01*
G75*
G02*
X147607000Y-55017000I250000J0D01*
G01*
X148557000Y-55017000D01*
G75*
G02*
X148807000Y-55267000I0J-250000D01*
G01*
X148807000Y-55942000D01*
G75*
G02*
X148557000Y-56192000I-250000J0D01*
G01*
G37*
%TD*%
%TO.C,C7*%
G36*
G01*
X161232000Y-59022000D02*
X161232000Y-58072000D01*
G75*
G02*
X161482000Y-57822000I250000J0D01*
G01*
X162157000Y-57822000D01*
G75*
G02*
X162407000Y-58072000I0J-250000D01*
G01*
X162407000Y-59022000D01*
G75*
G02*
X162157000Y-59272000I-250000J0D01*
G01*
X161482000Y-59272000D01*
G75*
G02*
X161232000Y-59022000I0J250000D01*
G01*
G37*
G36*
G01*
X159157000Y-59022000D02*
X159157000Y-58072000D01*
G75*
G02*
X159407000Y-57822000I250000J0D01*
G01*
X160082000Y-57822000D01*
G75*
G02*
X160332000Y-58072000I0J-250000D01*
G01*
X160332000Y-59022000D01*
G75*
G02*
X160082000Y-59272000I-250000J0D01*
G01*
X159407000Y-59272000D01*
G75*
G02*
X159157000Y-59022000I0J250000D01*
G01*
G37*
%TD*%
%TO.C,C8*%
G36*
G01*
X159157000Y-66642000D02*
X159157000Y-65692000D01*
G75*
G02*
X159407000Y-65442000I250000J0D01*
G01*
X160082000Y-65442000D01*
G75*
G02*
X160332000Y-65692000I0J-250000D01*
G01*
X160332000Y-66642000D01*
G75*
G02*
X160082000Y-66892000I-250000J0D01*
G01*
X159407000Y-66892000D01*
G75*
G02*
X159157000Y-66642000I0J250000D01*
G01*
G37*
G36*
G01*
X161232000Y-66642000D02*
X161232000Y-65692000D01*
G75*
G02*
X161482000Y-65442000I250000J0D01*
G01*
X162157000Y-65442000D01*
G75*
G02*
X162407000Y-65692000I0J-250000D01*
G01*
X162407000Y-66642000D01*
G75*
G02*
X162157000Y-66892000I-250000J0D01*
G01*
X161482000Y-66892000D01*
G75*
G02*
X161232000Y-66642000I0J250000D01*
G01*
G37*
%TD*%
%TO.C,C9*%
G36*
G01*
X161232000Y-73627000D02*
X161232000Y-72677000D01*
G75*
G02*
X161482000Y-72427000I250000J0D01*
G01*
X162157000Y-72427000D01*
G75*
G02*
X162407000Y-72677000I0J-250000D01*
G01*
X162407000Y-73627000D01*
G75*
G02*
X162157000Y-73877000I-250000J0D01*
G01*
X161482000Y-73877000D01*
G75*
G02*
X161232000Y-73627000I0J250000D01*
G01*
G37*
G36*
G01*
X159157000Y-73627000D02*
X159157000Y-72677000D01*
G75*
G02*
X159407000Y-72427000I250000J0D01*
G01*
X160082000Y-72427000D01*
G75*
G02*
X160332000Y-72677000I0J-250000D01*
G01*
X160332000Y-73627000D01*
G75*
G02*
X160082000Y-73877000I-250000J0D01*
G01*
X159407000Y-73877000D01*
G75*
G02*
X159157000Y-73627000I0J250000D01*
G01*
G37*
%TD*%
%TO.C,C10*%
G36*
G01*
X104300000Y-95065000D02*
X105250000Y-95065000D01*
G75*
G02*
X105500000Y-95315000I0J-250000D01*
G01*
X105500000Y-95990000D01*
G75*
G02*
X105250000Y-96240000I-250000J0D01*
G01*
X104300000Y-96240000D01*
G75*
G02*
X104050000Y-95990000I0J250000D01*
G01*
X104050000Y-95315000D01*
G75*
G02*
X104300000Y-95065000I250000J0D01*
G01*
G37*
G36*
G01*
X104300000Y-92990000D02*
X105250000Y-92990000D01*
G75*
G02*
X105500000Y-93240000I0J-250000D01*
G01*
X105500000Y-93915000D01*
G75*
G02*
X105250000Y-94165000I-250000J0D01*
G01*
X104300000Y-94165000D01*
G75*
G02*
X104050000Y-93915000I0J250000D01*
G01*
X104050000Y-93240000D01*
G75*
G02*
X104300000Y-92990000I250000J0D01*
G01*
G37*
%TD*%
D16*
%TO.C,D2*%
X170848000Y-97028000D03*
X165448000Y-97028000D03*
%TD*%
D17*
%TO.C,D3*%
X158536000Y-82042000D03*
X163536000Y-82042000D03*
%TD*%
%TO.C,D4*%
G36*
G01*
X94859000Y-87290000D02*
X93609000Y-87290000D01*
G75*
G02*
X93359000Y-87040000I0J250000D01*
G01*
X93359000Y-86115000D01*
G75*
G02*
X93609000Y-85865000I250000J0D01*
G01*
X94859000Y-85865000D01*
G75*
G02*
X95109000Y-86115000I0J-250000D01*
G01*
X95109000Y-87040000D01*
G75*
G02*
X94859000Y-87290000I-250000J0D01*
G01*
G37*
G36*
G01*
X94859000Y-84315000D02*
X93609000Y-84315000D01*
G75*
G02*
X93359000Y-84065000I0J250000D01*
G01*
X93359000Y-83140000D01*
G75*
G02*
X93609000Y-82890000I250000J0D01*
G01*
X94859000Y-82890000D01*
G75*
G02*
X95109000Y-83140000I0J-250000D01*
G01*
X95109000Y-84065000D01*
G75*
G02*
X94859000Y-84315000I-250000J0D01*
G01*
G37*
%TD*%
%TO.C,D5*%
G36*
G01*
X130800000Y-94475000D02*
X129550000Y-94475000D01*
G75*
G02*
X129300000Y-94225000I0J250000D01*
G01*
X129300000Y-93300000D01*
G75*
G02*
X129550000Y-93050000I250000J0D01*
G01*
X130800000Y-93050000D01*
G75*
G02*
X131050000Y-93300000I0J-250000D01*
G01*
X131050000Y-94225000D01*
G75*
G02*
X130800000Y-94475000I-250000J0D01*
G01*
G37*
G36*
G01*
X130800000Y-97450000D02*
X129550000Y-97450000D01*
G75*
G02*
X129300000Y-97200000I0J250000D01*
G01*
X129300000Y-96275000D01*
G75*
G02*
X129550000Y-96025000I250000J0D01*
G01*
X130800000Y-96025000D01*
G75*
G02*
X131050000Y-96275000I0J-250000D01*
G01*
X131050000Y-97200000D01*
G75*
G02*
X130800000Y-97450000I-250000J0D01*
G01*
G37*
%TD*%
%TO.C,D6*%
G36*
G01*
X133340000Y-97450000D02*
X132090000Y-97450000D01*
G75*
G02*
X131840000Y-97200000I0J250000D01*
G01*
X131840000Y-96275000D01*
G75*
G02*
X132090000Y-96025000I250000J0D01*
G01*
X133340000Y-96025000D01*
G75*
G02*
X133590000Y-96275000I0J-250000D01*
G01*
X133590000Y-97200000D01*
G75*
G02*
X133340000Y-97450000I-250000J0D01*
G01*
G37*
G36*
G01*
X133340000Y-94475000D02*
X132090000Y-94475000D01*
G75*
G02*
X131840000Y-94225000I0J250000D01*
G01*
X131840000Y-93300000D01*
G75*
G02*
X132090000Y-93050000I250000J0D01*
G01*
X133340000Y-93050000D01*
G75*
G02*
X133590000Y-93300000I0J-250000D01*
G01*
X133590000Y-94225000D01*
G75*
G02*
X133340000Y-94475000I-250000J0D01*
G01*
G37*
%TD*%
D18*
%TO.C,H1*%
X69930000Y-110562000D03*
%TD*%
%TO.C,H2*%
X175930000Y-110562000D03*
%TD*%
%TO.C,H3*%
X69930000Y-52562000D03*
%TD*%
%TO.C,H4*%
X175930000Y-52562000D03*
%TD*%
D19*
%TO.C,J1*%
X170942000Y-91440000D03*
D20*
X170942000Y-86440000D03*
%TD*%
%TO.C,J2*%
G36*
G01*
X124040000Y-54901000D02*
X124040000Y-56351000D01*
G75*
G02*
X123790000Y-56601000I-250000J0D01*
G01*
X122590000Y-56601000D01*
G75*
G02*
X122340000Y-56351000I0J250000D01*
G01*
X122340000Y-54901000D01*
G75*
G02*
X122590000Y-54651000I250000J0D01*
G01*
X123790000Y-54651000D01*
G75*
G02*
X124040000Y-54901000I0J-250000D01*
G01*
G37*
D15*
X120690000Y-55626000D03*
X118190000Y-55626000D03*
X115690000Y-55626000D03*
%TD*%
D21*
%TO.C,J3*%
X128741000Y-62568000D03*
X141881000Y-62568000D03*
D22*
X138811000Y-65278000D03*
D23*
X136311000Y-65278000D03*
X134311000Y-65278000D03*
X131811000Y-65278000D03*
%TD*%
D15*
%TO.C,J4*%
X115690000Y-62992000D03*
X118190000Y-62992000D03*
X120690000Y-62992000D03*
G36*
G01*
X124040000Y-62267000D02*
X124040000Y-63717000D01*
G75*
G02*
X123790000Y-63967000I-250000J0D01*
G01*
X122590000Y-63967000D01*
G75*
G02*
X122340000Y-63717000I0J250000D01*
G01*
X122340000Y-62267000D01*
G75*
G02*
X122590000Y-62017000I250000J0D01*
G01*
X123790000Y-62017000D01*
G75*
G02*
X124040000Y-62267000I0J-250000D01*
G01*
G37*
%TD*%
%TO.C,J5*%
G36*
G01*
X170214000Y-80248000D02*
X168114000Y-80248000D01*
G75*
G02*
X167864000Y-79998000I0J250000D01*
G01*
X167864000Y-78498000D01*
G75*
G02*
X168114000Y-78248000I250000J0D01*
G01*
X170214000Y-78248000D01*
G75*
G02*
X170464000Y-78498000I0J-250000D01*
G01*
X170464000Y-79998000D01*
G75*
G02*
X170214000Y-80248000I-250000J0D01*
G01*
G37*
D24*
X169164000Y-75748000D03*
X169164000Y-72248000D03*
X169164000Y-68748000D03*
X169164000Y-65248000D03*
X169164000Y-61748000D03*
%TD*%
D25*
%TO.C,J6*%
X111800000Y-70231000D03*
G36*
G01*
X115150000Y-69481000D02*
X115150000Y-70981000D01*
G75*
G02*
X114900000Y-71231000I-250000J0D01*
G01*
X113700000Y-71231000D01*
G75*
G02*
X113450000Y-70981000I0J250000D01*
G01*
X113450000Y-69481000D01*
G75*
G02*
X113700000Y-69231000I250000J0D01*
G01*
X114900000Y-69231000D01*
G75*
G02*
X115150000Y-69481000I0J-250000D01*
G01*
G37*
%TD*%
D15*
%TO.C,J7*%
X96720000Y-62992000D03*
X99220000Y-62992000D03*
X101720000Y-62992000D03*
X104220000Y-62992000D03*
X106720000Y-62992000D03*
G36*
G01*
X110070000Y-62267000D02*
X110070000Y-63717000D01*
G75*
G02*
X109820000Y-63967000I-250000J0D01*
G01*
X108620000Y-63967000D01*
G75*
G02*
X108370000Y-63717000I0J250000D01*
G01*
X108370000Y-62267000D01*
G75*
G02*
X108620000Y-62017000I250000J0D01*
G01*
X109820000Y-62017000D01*
G75*
G02*
X110070000Y-62267000I0J-250000D01*
G01*
G37*
%TD*%
%TO.C,J8*%
G36*
G01*
X124060000Y-69482000D02*
X124060000Y-70982000D01*
G75*
G02*
X123810000Y-71232000I-250000J0D01*
G01*
X122610000Y-71232000D01*
G75*
G02*
X122360000Y-70982000I0J250000D01*
G01*
X122360000Y-69482000D01*
G75*
G02*
X122610000Y-69232000I250000J0D01*
G01*
X123810000Y-69232000D01*
G75*
G02*
X124060000Y-69482000I0J-250000D01*
G01*
G37*
D25*
X120710000Y-70232000D03*
%TD*%
D26*
%TO.C,L1*%
X141784000Y-98044000D03*
X158444000Y-98044000D03*
%TD*%
D27*
%TO.C,Q1*%
X143526000Y-74234000D03*
X143526000Y-76134000D03*
X145526000Y-75184000D03*
%TD*%
%TO.C,U4*%
G36*
G01*
X150982000Y-54887000D02*
X150982000Y-54587000D01*
G75*
G02*
X151132000Y-54437000I150000J0D01*
G01*
X152782000Y-54437000D01*
G75*
G02*
X152932000Y-54587000I0J-150000D01*
G01*
X152932000Y-54887000D01*
G75*
G02*
X152782000Y-55037000I-150000J0D01*
G01*
X151132000Y-55037000D01*
G75*
G02*
X150982000Y-54887000I0J150000D01*
G01*
G37*
G36*
G01*
X150982000Y-56157000D02*
X150982000Y-55857000D01*
G75*
G02*
X151132000Y-55707000I150000J0D01*
G01*
X152782000Y-55707000D01*
G75*
G02*
X152932000Y-55857000I0J-150000D01*
G01*
X152932000Y-56157000D01*
G75*
G02*
X152782000Y-56307000I-150000J0D01*
G01*
X151132000Y-56307000D01*
G75*
G02*
X150982000Y-56157000I0J150000D01*
G01*
G37*
G36*
G01*
X150982000Y-57427000D02*
X150982000Y-57127000D01*
G75*
G02*
X151132000Y-56977000I150000J0D01*
G01*
X152782000Y-56977000D01*
G75*
G02*
X152932000Y-57127000I0J-150000D01*
G01*
X152932000Y-57427000D01*
G75*
G02*
X152782000Y-57577000I-150000J0D01*
G01*
X151132000Y-57577000D01*
G75*
G02*
X150982000Y-57427000I0J150000D01*
G01*
G37*
G36*
G01*
X150982000Y-58697000D02*
X150982000Y-58397000D01*
G75*
G02*
X151132000Y-58247000I150000J0D01*
G01*
X152782000Y-58247000D01*
G75*
G02*
X152932000Y-58397000I0J-150000D01*
G01*
X152932000Y-58697000D01*
G75*
G02*
X152782000Y-58847000I-150000J0D01*
G01*
X151132000Y-58847000D01*
G75*
G02*
X150982000Y-58697000I0J150000D01*
G01*
G37*
G36*
G01*
X155932000Y-58697000D02*
X155932000Y-58397000D01*
G75*
G02*
X156082000Y-58247000I150000J0D01*
G01*
X157732000Y-58247000D01*
G75*
G02*
X157882000Y-58397000I0J-150000D01*
G01*
X157882000Y-58697000D01*
G75*
G02*
X157732000Y-58847000I-150000J0D01*
G01*
X156082000Y-58847000D01*
G75*
G02*
X155932000Y-58697000I0J150000D01*
G01*
G37*
G36*
G01*
X155932000Y-57427000D02*
X155932000Y-57127000D01*
G75*
G02*
X156082000Y-56977000I150000J0D01*
G01*
X157732000Y-56977000D01*
G75*
G02*
X157882000Y-57127000I0J-150000D01*
G01*
X157882000Y-57427000D01*
G75*
G02*
X157732000Y-57577000I-150000J0D01*
G01*
X156082000Y-57577000D01*
G75*
G02*
X155932000Y-57427000I0J150000D01*
G01*
G37*
G36*
G01*
X155932000Y-56157000D02*
X155932000Y-55857000D01*
G75*
G02*
X156082000Y-55707000I150000J0D01*
G01*
X157732000Y-55707000D01*
G75*
G02*
X157882000Y-55857000I0J-150000D01*
G01*
X157882000Y-56157000D01*
G75*
G02*
X157732000Y-56307000I-150000J0D01*
G01*
X156082000Y-56307000D01*
G75*
G02*
X155932000Y-56157000I0J150000D01*
G01*
G37*
G36*
G01*
X155932000Y-54887000D02*
X155932000Y-54587000D01*
G75*
G02*
X156082000Y-54437000I150000J0D01*
G01*
X157732000Y-54437000D01*
G75*
G02*
X157882000Y-54587000I0J-150000D01*
G01*
X157882000Y-54887000D01*
G75*
G02*
X157732000Y-55037000I-150000J0D01*
G01*
X156082000Y-55037000D01*
G75*
G02*
X155932000Y-54887000I0J150000D01*
G01*
G37*
%TD*%
%TO.C,U5*%
G36*
G01*
X150982000Y-69492000D02*
X150982000Y-69192000D01*
G75*
G02*
X151132000Y-69042000I150000J0D01*
G01*
X152782000Y-69042000D01*
G75*
G02*
X152932000Y-69192000I0J-150000D01*
G01*
X152932000Y-69492000D01*
G75*
G02*
X152782000Y-69642000I-150000J0D01*
G01*
X151132000Y-69642000D01*
G75*
G02*
X150982000Y-69492000I0J150000D01*
G01*
G37*
G36*
G01*
X150982000Y-70762000D02*
X150982000Y-70462000D01*
G75*
G02*
X151132000Y-70312000I150000J0D01*
G01*
X152782000Y-70312000D01*
G75*
G02*
X152932000Y-70462000I0J-150000D01*
G01*
X152932000Y-70762000D01*
G75*
G02*
X152782000Y-70912000I-150000J0D01*
G01*
X151132000Y-70912000D01*
G75*
G02*
X150982000Y-70762000I0J150000D01*
G01*
G37*
G36*
G01*
X150982000Y-72032000D02*
X150982000Y-71732000D01*
G75*
G02*
X151132000Y-71582000I150000J0D01*
G01*
X152782000Y-71582000D01*
G75*
G02*
X152932000Y-71732000I0J-150000D01*
G01*
X152932000Y-72032000D01*
G75*
G02*
X152782000Y-72182000I-150000J0D01*
G01*
X151132000Y-72182000D01*
G75*
G02*
X150982000Y-72032000I0J150000D01*
G01*
G37*
G36*
G01*
X150982000Y-73302000D02*
X150982000Y-73002000D01*
G75*
G02*
X151132000Y-72852000I150000J0D01*
G01*
X152782000Y-72852000D01*
G75*
G02*
X152932000Y-73002000I0J-150000D01*
G01*
X152932000Y-73302000D01*
G75*
G02*
X152782000Y-73452000I-150000J0D01*
G01*
X151132000Y-73452000D01*
G75*
G02*
X150982000Y-73302000I0J150000D01*
G01*
G37*
G36*
G01*
X155932000Y-73302000D02*
X155932000Y-73002000D01*
G75*
G02*
X156082000Y-72852000I150000J0D01*
G01*
X157732000Y-72852000D01*
G75*
G02*
X157882000Y-73002000I0J-150000D01*
G01*
X157882000Y-73302000D01*
G75*
G02*
X157732000Y-73452000I-150000J0D01*
G01*
X156082000Y-73452000D01*
G75*
G02*
X155932000Y-73302000I0J150000D01*
G01*
G37*
G36*
G01*
X155932000Y-72032000D02*
X155932000Y-71732000D01*
G75*
G02*
X156082000Y-71582000I150000J0D01*
G01*
X157732000Y-71582000D01*
G75*
G02*
X157882000Y-71732000I0J-150000D01*
G01*
X157882000Y-72032000D01*
G75*
G02*
X157732000Y-72182000I-150000J0D01*
G01*
X156082000Y-72182000D01*
G75*
G02*
X155932000Y-72032000I0J150000D01*
G01*
G37*
G36*
G01*
X155932000Y-70762000D02*
X155932000Y-70462000D01*
G75*
G02*
X156082000Y-70312000I150000J0D01*
G01*
X157732000Y-70312000D01*
G75*
G02*
X157882000Y-70462000I0J-150000D01*
G01*
X157882000Y-70762000D01*
G75*
G02*
X157732000Y-70912000I-150000J0D01*
G01*
X156082000Y-70912000D01*
G75*
G02*
X155932000Y-70762000I0J150000D01*
G01*
G37*
G36*
G01*
X155932000Y-69492000D02*
X155932000Y-69192000D01*
G75*
G02*
X156082000Y-69042000I150000J0D01*
G01*
X157732000Y-69042000D01*
G75*
G02*
X157882000Y-69192000I0J-150000D01*
G01*
X157882000Y-69492000D01*
G75*
G02*
X157732000Y-69642000I-150000J0D01*
G01*
X156082000Y-69642000D01*
G75*
G02*
X155932000Y-69492000I0J150000D01*
G01*
G37*
%TD*%
%TO.C,U6*%
G36*
G01*
X155932000Y-62507000D02*
X155932000Y-62207000D01*
G75*
G02*
X156082000Y-62057000I150000J0D01*
G01*
X157732000Y-62057000D01*
G75*
G02*
X157882000Y-62207000I0J-150000D01*
G01*
X157882000Y-62507000D01*
G75*
G02*
X157732000Y-62657000I-150000J0D01*
G01*
X156082000Y-62657000D01*
G75*
G02*
X155932000Y-62507000I0J150000D01*
G01*
G37*
G36*
G01*
X155932000Y-63777000D02*
X155932000Y-63477000D01*
G75*
G02*
X156082000Y-63327000I150000J0D01*
G01*
X157732000Y-63327000D01*
G75*
G02*
X157882000Y-63477000I0J-150000D01*
G01*
X157882000Y-63777000D01*
G75*
G02*
X157732000Y-63927000I-150000J0D01*
G01*
X156082000Y-63927000D01*
G75*
G02*
X155932000Y-63777000I0J150000D01*
G01*
G37*
G36*
G01*
X155932000Y-65047000D02*
X155932000Y-64747000D01*
G75*
G02*
X156082000Y-64597000I150000J0D01*
G01*
X157732000Y-64597000D01*
G75*
G02*
X157882000Y-64747000I0J-150000D01*
G01*
X157882000Y-65047000D01*
G75*
G02*
X157732000Y-65197000I-150000J0D01*
G01*
X156082000Y-65197000D01*
G75*
G02*
X155932000Y-65047000I0J150000D01*
G01*
G37*
G36*
G01*
X155932000Y-66317000D02*
X155932000Y-66017000D01*
G75*
G02*
X156082000Y-65867000I150000J0D01*
G01*
X157732000Y-65867000D01*
G75*
G02*
X157882000Y-66017000I0J-150000D01*
G01*
X157882000Y-66317000D01*
G75*
G02*
X157732000Y-66467000I-150000J0D01*
G01*
X156082000Y-66467000D01*
G75*
G02*
X155932000Y-66317000I0J150000D01*
G01*
G37*
G36*
G01*
X150982000Y-66317000D02*
X150982000Y-66017000D01*
G75*
G02*
X151132000Y-65867000I150000J0D01*
G01*
X152782000Y-65867000D01*
G75*
G02*
X152932000Y-66017000I0J-150000D01*
G01*
X152932000Y-66317000D01*
G75*
G02*
X152782000Y-66467000I-150000J0D01*
G01*
X151132000Y-66467000D01*
G75*
G02*
X150982000Y-66317000I0J150000D01*
G01*
G37*
G36*
G01*
X150982000Y-65047000D02*
X150982000Y-64747000D01*
G75*
G02*
X151132000Y-64597000I150000J0D01*
G01*
X152782000Y-64597000D01*
G75*
G02*
X152932000Y-64747000I0J-150000D01*
G01*
X152932000Y-65047000D01*
G75*
G02*
X152782000Y-65197000I-150000J0D01*
G01*
X151132000Y-65197000D01*
G75*
G02*
X150982000Y-65047000I0J150000D01*
G01*
G37*
G36*
G01*
X150982000Y-63777000D02*
X150982000Y-63477000D01*
G75*
G02*
X151132000Y-63327000I150000J0D01*
G01*
X152782000Y-63327000D01*
G75*
G02*
X152932000Y-63477000I0J-150000D01*
G01*
X152932000Y-63777000D01*
G75*
G02*
X152782000Y-63927000I-150000J0D01*
G01*
X151132000Y-63927000D01*
G75*
G02*
X150982000Y-63777000I0J150000D01*
G01*
G37*
G36*
G01*
X150982000Y-62507000D02*
X150982000Y-62207000D01*
G75*
G02*
X151132000Y-62057000I150000J0D01*
G01*
X152782000Y-62057000D01*
G75*
G02*
X152932000Y-62207000I0J-150000D01*
G01*
X152932000Y-62507000D01*
G75*
G02*
X152782000Y-62657000I-150000J0D01*
G01*
X151132000Y-62657000D01*
G75*
G02*
X150982000Y-62507000I0J150000D01*
G01*
G37*
%TD*%
M02*
