%TF.GenerationSoftware,KiCad,Pcbnew,(5.1.9)-1*%
%TF.CreationDate,2021-03-15T23:27:25+01:00*%
%TF.ProjectId,fendt-teensy-aog-smd,66656e64-742d-4746-9565-6e73792d616f,rev?*%
%TF.SameCoordinates,Original*%
%TF.FileFunction,Paste,Top*%
%TF.FilePolarity,Positive*%
%FSLAX46Y46*%
G04 Gerber Fmt 4.6, Leading zero omitted, Abs format (unit mm)*
G04 Created by KiCad (PCBNEW (5.1.9)-1) date 2021-03-15 23:27:25*
%MOMM*%
%LPD*%
G01*
G04 APERTURE LIST*
%ADD10R,4.600000X1.100000*%
%ADD11R,4.550000X5.250000*%
%ADD12R,3.500000X2.300000*%
%ADD13R,3.500000X1.800000*%
%ADD14R,4.000000X3.000000*%
%ADD15R,0.900000X0.800000*%
G04 APERTURE END LIST*
D10*
%TO.C,U2*%
X152841000Y-87220000D03*
X152841000Y-85520000D03*
X152841000Y-83820000D03*
X152841000Y-82120000D03*
X152841000Y-80420000D03*
D11*
X141266000Y-81045000D03*
X146116000Y-86595000D03*
X141266000Y-86595000D03*
X146116000Y-81045000D03*
%TD*%
%TO.C,R2*%
G36*
G01*
X96970001Y-84690000D02*
X96069999Y-84690000D01*
G75*
G02*
X95820000Y-84440001I0J249999D01*
G01*
X95820000Y-83739999D01*
G75*
G02*
X96069999Y-83490000I249999J0D01*
G01*
X96970001Y-83490000D01*
G75*
G02*
X97220000Y-83739999I0J-249999D01*
G01*
X97220000Y-84440001D01*
G75*
G02*
X96970001Y-84690000I-249999J0D01*
G01*
G37*
G36*
G01*
X96970001Y-86690000D02*
X96069999Y-86690000D01*
G75*
G02*
X95820000Y-86440001I0J249999D01*
G01*
X95820000Y-85739999D01*
G75*
G02*
X96069999Y-85490000I249999J0D01*
G01*
X96970001Y-85490000D01*
G75*
G02*
X97220000Y-85739999I0J-249999D01*
G01*
X97220000Y-86440001D01*
G75*
G02*
X96970001Y-86690000I-249999J0D01*
G01*
G37*
%TD*%
%TO.C,R3*%
G36*
G01*
X161182000Y-55187001D02*
X161182000Y-54286999D01*
G75*
G02*
X161431999Y-54037000I249999J0D01*
G01*
X162132001Y-54037000D01*
G75*
G02*
X162382000Y-54286999I0J-249999D01*
G01*
X162382000Y-55187001D01*
G75*
G02*
X162132001Y-55437000I-249999J0D01*
G01*
X161431999Y-55437000D01*
G75*
G02*
X161182000Y-55187001I0J249999D01*
G01*
G37*
G36*
G01*
X159182000Y-55187001D02*
X159182000Y-54286999D01*
G75*
G02*
X159431999Y-54037000I249999J0D01*
G01*
X160132001Y-54037000D01*
G75*
G02*
X160382000Y-54286999I0J-249999D01*
G01*
X160382000Y-55187001D01*
G75*
G02*
X160132001Y-55437000I-249999J0D01*
G01*
X159431999Y-55437000D01*
G75*
G02*
X159182000Y-55187001I0J249999D01*
G01*
G37*
%TD*%
%TO.C,R4*%
G36*
G01*
X161182000Y-69792001D02*
X161182000Y-68891999D01*
G75*
G02*
X161431999Y-68642000I249999J0D01*
G01*
X162132001Y-68642000D01*
G75*
G02*
X162382000Y-68891999I0J-249999D01*
G01*
X162382000Y-69792001D01*
G75*
G02*
X162132001Y-70042000I-249999J0D01*
G01*
X161431999Y-70042000D01*
G75*
G02*
X161182000Y-69792001I0J249999D01*
G01*
G37*
G36*
G01*
X159182000Y-69792001D02*
X159182000Y-68891999D01*
G75*
G02*
X159431999Y-68642000I249999J0D01*
G01*
X160132001Y-68642000D01*
G75*
G02*
X160382000Y-68891999I0J-249999D01*
G01*
X160382000Y-69792001D01*
G75*
G02*
X160132001Y-70042000I-249999J0D01*
G01*
X159431999Y-70042000D01*
G75*
G02*
X159182000Y-69792001I0J249999D01*
G01*
G37*
%TD*%
%TO.C,R5*%
G36*
G01*
X129724999Y-100730000D02*
X130625001Y-100730000D01*
G75*
G02*
X130875000Y-100979999I0J-249999D01*
G01*
X130875000Y-101680001D01*
G75*
G02*
X130625001Y-101930000I-249999J0D01*
G01*
X129724999Y-101930000D01*
G75*
G02*
X129475000Y-101680001I0J249999D01*
G01*
X129475000Y-100979999D01*
G75*
G02*
X129724999Y-100730000I249999J0D01*
G01*
G37*
G36*
G01*
X129724999Y-98730000D02*
X130625001Y-98730000D01*
G75*
G02*
X130875000Y-98979999I0J-249999D01*
G01*
X130875000Y-99680001D01*
G75*
G02*
X130625001Y-99930000I-249999J0D01*
G01*
X129724999Y-99930000D01*
G75*
G02*
X129475000Y-99680001I0J249999D01*
G01*
X129475000Y-98979999D01*
G75*
G02*
X129724999Y-98730000I249999J0D01*
G01*
G37*
%TD*%
%TO.C,R6*%
G36*
G01*
X132264999Y-100730000D02*
X133165001Y-100730000D01*
G75*
G02*
X133415000Y-100979999I0J-249999D01*
G01*
X133415000Y-101680001D01*
G75*
G02*
X133165001Y-101930000I-249999J0D01*
G01*
X132264999Y-101930000D01*
G75*
G02*
X132015000Y-101680001I0J249999D01*
G01*
X132015000Y-100979999D01*
G75*
G02*
X132264999Y-100730000I249999J0D01*
G01*
G37*
G36*
G01*
X132264999Y-98730000D02*
X133165001Y-98730000D01*
G75*
G02*
X133415000Y-98979999I0J-249999D01*
G01*
X133415000Y-99680001D01*
G75*
G02*
X133165001Y-99930000I-249999J0D01*
G01*
X132264999Y-99930000D01*
G75*
G02*
X132015000Y-99680001I0J249999D01*
G01*
X132015000Y-98979999D01*
G75*
G02*
X132264999Y-98730000I249999J0D01*
G01*
G37*
%TD*%
%TO.C,R9*%
G36*
G01*
X161182000Y-62807001D02*
X161182000Y-61906999D01*
G75*
G02*
X161431999Y-61657000I249999J0D01*
G01*
X162132001Y-61657000D01*
G75*
G02*
X162382000Y-61906999I0J-249999D01*
G01*
X162382000Y-62807001D01*
G75*
G02*
X162132001Y-63057000I-249999J0D01*
G01*
X161431999Y-63057000D01*
G75*
G02*
X161182000Y-62807001I0J249999D01*
G01*
G37*
G36*
G01*
X159182000Y-62807001D02*
X159182000Y-61906999D01*
G75*
G02*
X159431999Y-61657000I249999J0D01*
G01*
X160132001Y-61657000D01*
G75*
G02*
X160382000Y-61906999I0J-249999D01*
G01*
X160382000Y-62807001D01*
G75*
G02*
X160132001Y-63057000I-249999J0D01*
G01*
X159431999Y-63057000D01*
G75*
G02*
X159182000Y-62807001I0J249999D01*
G01*
G37*
%TD*%
%TO.C,C3*%
G36*
G01*
X136753000Y-68613000D02*
X136753000Y-69563000D01*
G75*
G02*
X136503000Y-69813000I-250000J0D01*
G01*
X135828000Y-69813000D01*
G75*
G02*
X135578000Y-69563000I0J250000D01*
G01*
X135578000Y-68613000D01*
G75*
G02*
X135828000Y-68363000I250000J0D01*
G01*
X136503000Y-68363000D01*
G75*
G02*
X136753000Y-68613000I0J-250000D01*
G01*
G37*
G36*
G01*
X134678000Y-68613000D02*
X134678000Y-69563000D01*
G75*
G02*
X134428000Y-69813000I-250000J0D01*
G01*
X133753000Y-69813000D01*
G75*
G02*
X133503000Y-69563000I0J250000D01*
G01*
X133503000Y-68613000D01*
G75*
G02*
X133753000Y-68363000I250000J0D01*
G01*
X134428000Y-68363000D01*
G75*
G02*
X134678000Y-68613000I0J-250000D01*
G01*
G37*
%TD*%
%TO.C,C4*%
G36*
G01*
X148557000Y-72872000D02*
X147607000Y-72872000D01*
G75*
G02*
X147357000Y-72622000I0J250000D01*
G01*
X147357000Y-71947000D01*
G75*
G02*
X147607000Y-71697000I250000J0D01*
G01*
X148557000Y-71697000D01*
G75*
G02*
X148807000Y-71947000I0J-250000D01*
G01*
X148807000Y-72622000D01*
G75*
G02*
X148557000Y-72872000I-250000J0D01*
G01*
G37*
G36*
G01*
X148557000Y-70797000D02*
X147607000Y-70797000D01*
G75*
G02*
X147357000Y-70547000I0J250000D01*
G01*
X147357000Y-69872000D01*
G75*
G02*
X147607000Y-69622000I250000J0D01*
G01*
X148557000Y-69622000D01*
G75*
G02*
X148807000Y-69872000I0J-250000D01*
G01*
X148807000Y-70547000D01*
G75*
G02*
X148557000Y-70797000I-250000J0D01*
G01*
G37*
%TD*%
%TO.C,C5*%
G36*
G01*
X148557000Y-63812000D02*
X147607000Y-63812000D01*
G75*
G02*
X147357000Y-63562000I0J250000D01*
G01*
X147357000Y-62887000D01*
G75*
G02*
X147607000Y-62637000I250000J0D01*
G01*
X148557000Y-62637000D01*
G75*
G02*
X148807000Y-62887000I0J-250000D01*
G01*
X148807000Y-63562000D01*
G75*
G02*
X148557000Y-63812000I-250000J0D01*
G01*
G37*
G36*
G01*
X148557000Y-65887000D02*
X147607000Y-65887000D01*
G75*
G02*
X147357000Y-65637000I0J250000D01*
G01*
X147357000Y-64962000D01*
G75*
G02*
X147607000Y-64712000I250000J0D01*
G01*
X148557000Y-64712000D01*
G75*
G02*
X148807000Y-64962000I0J-250000D01*
G01*
X148807000Y-65637000D01*
G75*
G02*
X148557000Y-65887000I-250000J0D01*
G01*
G37*
%TD*%
%TO.C,C6*%
G36*
G01*
X148557000Y-58267000D02*
X147607000Y-58267000D01*
G75*
G02*
X147357000Y-58017000I0J250000D01*
G01*
X147357000Y-57342000D01*
G75*
G02*
X147607000Y-57092000I250000J0D01*
G01*
X148557000Y-57092000D01*
G75*
G02*
X148807000Y-57342000I0J-250000D01*
G01*
X148807000Y-58017000D01*
G75*
G02*
X148557000Y-58267000I-250000J0D01*
G01*
G37*
G36*
G01*
X148557000Y-56192000D02*
X147607000Y-56192000D01*
G75*
G02*
X147357000Y-55942000I0J250000D01*
G01*
X147357000Y-55267000D01*
G75*
G02*
X147607000Y-55017000I250000J0D01*
G01*
X148557000Y-55017000D01*
G75*
G02*
X148807000Y-55267000I0J-250000D01*
G01*
X148807000Y-55942000D01*
G75*
G02*
X148557000Y-56192000I-250000J0D01*
G01*
G37*
%TD*%
%TO.C,C7*%
G36*
G01*
X161232000Y-59022000D02*
X161232000Y-58072000D01*
G75*
G02*
X161482000Y-57822000I250000J0D01*
G01*
X162157000Y-57822000D01*
G75*
G02*
X162407000Y-58072000I0J-250000D01*
G01*
X162407000Y-59022000D01*
G75*
G02*
X162157000Y-59272000I-250000J0D01*
G01*
X161482000Y-59272000D01*
G75*
G02*
X161232000Y-59022000I0J250000D01*
G01*
G37*
G36*
G01*
X159157000Y-59022000D02*
X159157000Y-58072000D01*
G75*
G02*
X159407000Y-57822000I250000J0D01*
G01*
X160082000Y-57822000D01*
G75*
G02*
X160332000Y-58072000I0J-250000D01*
G01*
X160332000Y-59022000D01*
G75*
G02*
X160082000Y-59272000I-250000J0D01*
G01*
X159407000Y-59272000D01*
G75*
G02*
X159157000Y-59022000I0J250000D01*
G01*
G37*
%TD*%
%TO.C,C8*%
G36*
G01*
X159157000Y-66642000D02*
X159157000Y-65692000D01*
G75*
G02*
X159407000Y-65442000I250000J0D01*
G01*
X160082000Y-65442000D01*
G75*
G02*
X160332000Y-65692000I0J-250000D01*
G01*
X160332000Y-66642000D01*
G75*
G02*
X160082000Y-66892000I-250000J0D01*
G01*
X159407000Y-66892000D01*
G75*
G02*
X159157000Y-66642000I0J250000D01*
G01*
G37*
G36*
G01*
X161232000Y-66642000D02*
X161232000Y-65692000D01*
G75*
G02*
X161482000Y-65442000I250000J0D01*
G01*
X162157000Y-65442000D01*
G75*
G02*
X162407000Y-65692000I0J-250000D01*
G01*
X162407000Y-66642000D01*
G75*
G02*
X162157000Y-66892000I-250000J0D01*
G01*
X161482000Y-66892000D01*
G75*
G02*
X161232000Y-66642000I0J250000D01*
G01*
G37*
%TD*%
%TO.C,C9*%
G36*
G01*
X161232000Y-73627000D02*
X161232000Y-72677000D01*
G75*
G02*
X161482000Y-72427000I250000J0D01*
G01*
X162157000Y-72427000D01*
G75*
G02*
X162407000Y-72677000I0J-250000D01*
G01*
X162407000Y-73627000D01*
G75*
G02*
X162157000Y-73877000I-250000J0D01*
G01*
X161482000Y-73877000D01*
G75*
G02*
X161232000Y-73627000I0J250000D01*
G01*
G37*
G36*
G01*
X159157000Y-73627000D02*
X159157000Y-72677000D01*
G75*
G02*
X159407000Y-72427000I250000J0D01*
G01*
X160082000Y-72427000D01*
G75*
G02*
X160332000Y-72677000I0J-250000D01*
G01*
X160332000Y-73627000D01*
G75*
G02*
X160082000Y-73877000I-250000J0D01*
G01*
X159407000Y-73877000D01*
G75*
G02*
X159157000Y-73627000I0J250000D01*
G01*
G37*
%TD*%
%TO.C,C10*%
G36*
G01*
X104300000Y-95065000D02*
X105250000Y-95065000D01*
G75*
G02*
X105500000Y-95315000I0J-250000D01*
G01*
X105500000Y-95990000D01*
G75*
G02*
X105250000Y-96240000I-250000J0D01*
G01*
X104300000Y-96240000D01*
G75*
G02*
X104050000Y-95990000I0J250000D01*
G01*
X104050000Y-95315000D01*
G75*
G02*
X104300000Y-95065000I250000J0D01*
G01*
G37*
G36*
G01*
X104300000Y-92990000D02*
X105250000Y-92990000D01*
G75*
G02*
X105500000Y-93240000I0J-250000D01*
G01*
X105500000Y-93915000D01*
G75*
G02*
X105250000Y-94165000I-250000J0D01*
G01*
X104300000Y-94165000D01*
G75*
G02*
X104050000Y-93915000I0J250000D01*
G01*
X104050000Y-93240000D01*
G75*
G02*
X104300000Y-92990000I250000J0D01*
G01*
G37*
%TD*%
D12*
%TO.C,D2*%
X170848000Y-97028000D03*
X165448000Y-97028000D03*
%TD*%
D13*
%TO.C,D3*%
X158536000Y-82042000D03*
X163536000Y-82042000D03*
%TD*%
%TO.C,D4*%
G36*
G01*
X94859000Y-87290000D02*
X93609000Y-87290000D01*
G75*
G02*
X93359000Y-87040000I0J250000D01*
G01*
X93359000Y-86115000D01*
G75*
G02*
X93609000Y-85865000I250000J0D01*
G01*
X94859000Y-85865000D01*
G75*
G02*
X95109000Y-86115000I0J-250000D01*
G01*
X95109000Y-87040000D01*
G75*
G02*
X94859000Y-87290000I-250000J0D01*
G01*
G37*
G36*
G01*
X94859000Y-84315000D02*
X93609000Y-84315000D01*
G75*
G02*
X93359000Y-84065000I0J250000D01*
G01*
X93359000Y-83140000D01*
G75*
G02*
X93609000Y-82890000I250000J0D01*
G01*
X94859000Y-82890000D01*
G75*
G02*
X95109000Y-83140000I0J-250000D01*
G01*
X95109000Y-84065000D01*
G75*
G02*
X94859000Y-84315000I-250000J0D01*
G01*
G37*
%TD*%
%TO.C,D5*%
G36*
G01*
X130800000Y-94475000D02*
X129550000Y-94475000D01*
G75*
G02*
X129300000Y-94225000I0J250000D01*
G01*
X129300000Y-93300000D01*
G75*
G02*
X129550000Y-93050000I250000J0D01*
G01*
X130800000Y-93050000D01*
G75*
G02*
X131050000Y-93300000I0J-250000D01*
G01*
X131050000Y-94225000D01*
G75*
G02*
X130800000Y-94475000I-250000J0D01*
G01*
G37*
G36*
G01*
X130800000Y-97450000D02*
X129550000Y-97450000D01*
G75*
G02*
X129300000Y-97200000I0J250000D01*
G01*
X129300000Y-96275000D01*
G75*
G02*
X129550000Y-96025000I250000J0D01*
G01*
X130800000Y-96025000D01*
G75*
G02*
X131050000Y-96275000I0J-250000D01*
G01*
X131050000Y-97200000D01*
G75*
G02*
X130800000Y-97450000I-250000J0D01*
G01*
G37*
%TD*%
%TO.C,D6*%
G36*
G01*
X133340000Y-97450000D02*
X132090000Y-97450000D01*
G75*
G02*
X131840000Y-97200000I0J250000D01*
G01*
X131840000Y-96275000D01*
G75*
G02*
X132090000Y-96025000I250000J0D01*
G01*
X133340000Y-96025000D01*
G75*
G02*
X133590000Y-96275000I0J-250000D01*
G01*
X133590000Y-97200000D01*
G75*
G02*
X133340000Y-97450000I-250000J0D01*
G01*
G37*
G36*
G01*
X133340000Y-94475000D02*
X132090000Y-94475000D01*
G75*
G02*
X131840000Y-94225000I0J250000D01*
G01*
X131840000Y-93300000D01*
G75*
G02*
X132090000Y-93050000I250000J0D01*
G01*
X133340000Y-93050000D01*
G75*
G02*
X133590000Y-93300000I0J-250000D01*
G01*
X133590000Y-94225000D01*
G75*
G02*
X133340000Y-94475000I-250000J0D01*
G01*
G37*
%TD*%
D14*
%TO.C,L1*%
X141784000Y-98044000D03*
X158444000Y-98044000D03*
%TD*%
D15*
%TO.C,Q1*%
X143526000Y-74234000D03*
X143526000Y-76134000D03*
X145526000Y-75184000D03*
%TD*%
%TO.C,U4*%
G36*
G01*
X150982000Y-54887000D02*
X150982000Y-54587000D01*
G75*
G02*
X151132000Y-54437000I150000J0D01*
G01*
X152782000Y-54437000D01*
G75*
G02*
X152932000Y-54587000I0J-150000D01*
G01*
X152932000Y-54887000D01*
G75*
G02*
X152782000Y-55037000I-150000J0D01*
G01*
X151132000Y-55037000D01*
G75*
G02*
X150982000Y-54887000I0J150000D01*
G01*
G37*
G36*
G01*
X150982000Y-56157000D02*
X150982000Y-55857000D01*
G75*
G02*
X151132000Y-55707000I150000J0D01*
G01*
X152782000Y-55707000D01*
G75*
G02*
X152932000Y-55857000I0J-150000D01*
G01*
X152932000Y-56157000D01*
G75*
G02*
X152782000Y-56307000I-150000J0D01*
G01*
X151132000Y-56307000D01*
G75*
G02*
X150982000Y-56157000I0J150000D01*
G01*
G37*
G36*
G01*
X150982000Y-57427000D02*
X150982000Y-57127000D01*
G75*
G02*
X151132000Y-56977000I150000J0D01*
G01*
X152782000Y-56977000D01*
G75*
G02*
X152932000Y-57127000I0J-150000D01*
G01*
X152932000Y-57427000D01*
G75*
G02*
X152782000Y-57577000I-150000J0D01*
G01*
X151132000Y-57577000D01*
G75*
G02*
X150982000Y-57427000I0J150000D01*
G01*
G37*
G36*
G01*
X150982000Y-58697000D02*
X150982000Y-58397000D01*
G75*
G02*
X151132000Y-58247000I150000J0D01*
G01*
X152782000Y-58247000D01*
G75*
G02*
X152932000Y-58397000I0J-150000D01*
G01*
X152932000Y-58697000D01*
G75*
G02*
X152782000Y-58847000I-150000J0D01*
G01*
X151132000Y-58847000D01*
G75*
G02*
X150982000Y-58697000I0J150000D01*
G01*
G37*
G36*
G01*
X155932000Y-58697000D02*
X155932000Y-58397000D01*
G75*
G02*
X156082000Y-58247000I150000J0D01*
G01*
X157732000Y-58247000D01*
G75*
G02*
X157882000Y-58397000I0J-150000D01*
G01*
X157882000Y-58697000D01*
G75*
G02*
X157732000Y-58847000I-150000J0D01*
G01*
X156082000Y-58847000D01*
G75*
G02*
X155932000Y-58697000I0J150000D01*
G01*
G37*
G36*
G01*
X155932000Y-57427000D02*
X155932000Y-57127000D01*
G75*
G02*
X156082000Y-56977000I150000J0D01*
G01*
X157732000Y-56977000D01*
G75*
G02*
X157882000Y-57127000I0J-150000D01*
G01*
X157882000Y-57427000D01*
G75*
G02*
X157732000Y-57577000I-150000J0D01*
G01*
X156082000Y-57577000D01*
G75*
G02*
X155932000Y-57427000I0J150000D01*
G01*
G37*
G36*
G01*
X155932000Y-56157000D02*
X155932000Y-55857000D01*
G75*
G02*
X156082000Y-55707000I150000J0D01*
G01*
X157732000Y-55707000D01*
G75*
G02*
X157882000Y-55857000I0J-150000D01*
G01*
X157882000Y-56157000D01*
G75*
G02*
X157732000Y-56307000I-150000J0D01*
G01*
X156082000Y-56307000D01*
G75*
G02*
X155932000Y-56157000I0J150000D01*
G01*
G37*
G36*
G01*
X155932000Y-54887000D02*
X155932000Y-54587000D01*
G75*
G02*
X156082000Y-54437000I150000J0D01*
G01*
X157732000Y-54437000D01*
G75*
G02*
X157882000Y-54587000I0J-150000D01*
G01*
X157882000Y-54887000D01*
G75*
G02*
X157732000Y-55037000I-150000J0D01*
G01*
X156082000Y-55037000D01*
G75*
G02*
X155932000Y-54887000I0J150000D01*
G01*
G37*
%TD*%
%TO.C,U5*%
G36*
G01*
X150982000Y-69492000D02*
X150982000Y-69192000D01*
G75*
G02*
X151132000Y-69042000I150000J0D01*
G01*
X152782000Y-69042000D01*
G75*
G02*
X152932000Y-69192000I0J-150000D01*
G01*
X152932000Y-69492000D01*
G75*
G02*
X152782000Y-69642000I-150000J0D01*
G01*
X151132000Y-69642000D01*
G75*
G02*
X150982000Y-69492000I0J150000D01*
G01*
G37*
G36*
G01*
X150982000Y-70762000D02*
X150982000Y-70462000D01*
G75*
G02*
X151132000Y-70312000I150000J0D01*
G01*
X152782000Y-70312000D01*
G75*
G02*
X152932000Y-70462000I0J-150000D01*
G01*
X152932000Y-70762000D01*
G75*
G02*
X152782000Y-70912000I-150000J0D01*
G01*
X151132000Y-70912000D01*
G75*
G02*
X150982000Y-70762000I0J150000D01*
G01*
G37*
G36*
G01*
X150982000Y-72032000D02*
X150982000Y-71732000D01*
G75*
G02*
X151132000Y-71582000I150000J0D01*
G01*
X152782000Y-71582000D01*
G75*
G02*
X152932000Y-71732000I0J-150000D01*
G01*
X152932000Y-72032000D01*
G75*
G02*
X152782000Y-72182000I-150000J0D01*
G01*
X151132000Y-72182000D01*
G75*
G02*
X150982000Y-72032000I0J150000D01*
G01*
G37*
G36*
G01*
X150982000Y-73302000D02*
X150982000Y-73002000D01*
G75*
G02*
X151132000Y-72852000I150000J0D01*
G01*
X152782000Y-72852000D01*
G75*
G02*
X152932000Y-73002000I0J-150000D01*
G01*
X152932000Y-73302000D01*
G75*
G02*
X152782000Y-73452000I-150000J0D01*
G01*
X151132000Y-73452000D01*
G75*
G02*
X150982000Y-73302000I0J150000D01*
G01*
G37*
G36*
G01*
X155932000Y-73302000D02*
X155932000Y-73002000D01*
G75*
G02*
X156082000Y-72852000I150000J0D01*
G01*
X157732000Y-72852000D01*
G75*
G02*
X157882000Y-73002000I0J-150000D01*
G01*
X157882000Y-73302000D01*
G75*
G02*
X157732000Y-73452000I-150000J0D01*
G01*
X156082000Y-73452000D01*
G75*
G02*
X155932000Y-73302000I0J150000D01*
G01*
G37*
G36*
G01*
X155932000Y-72032000D02*
X155932000Y-71732000D01*
G75*
G02*
X156082000Y-71582000I150000J0D01*
G01*
X157732000Y-71582000D01*
G75*
G02*
X157882000Y-71732000I0J-150000D01*
G01*
X157882000Y-72032000D01*
G75*
G02*
X157732000Y-72182000I-150000J0D01*
G01*
X156082000Y-72182000D01*
G75*
G02*
X155932000Y-72032000I0J150000D01*
G01*
G37*
G36*
G01*
X155932000Y-70762000D02*
X155932000Y-70462000D01*
G75*
G02*
X156082000Y-70312000I150000J0D01*
G01*
X157732000Y-70312000D01*
G75*
G02*
X157882000Y-70462000I0J-150000D01*
G01*
X157882000Y-70762000D01*
G75*
G02*
X157732000Y-70912000I-150000J0D01*
G01*
X156082000Y-70912000D01*
G75*
G02*
X155932000Y-70762000I0J150000D01*
G01*
G37*
G36*
G01*
X155932000Y-69492000D02*
X155932000Y-69192000D01*
G75*
G02*
X156082000Y-69042000I150000J0D01*
G01*
X157732000Y-69042000D01*
G75*
G02*
X157882000Y-69192000I0J-150000D01*
G01*
X157882000Y-69492000D01*
G75*
G02*
X157732000Y-69642000I-150000J0D01*
G01*
X156082000Y-69642000D01*
G75*
G02*
X155932000Y-69492000I0J150000D01*
G01*
G37*
%TD*%
%TO.C,U6*%
G36*
G01*
X155932000Y-62507000D02*
X155932000Y-62207000D01*
G75*
G02*
X156082000Y-62057000I150000J0D01*
G01*
X157732000Y-62057000D01*
G75*
G02*
X157882000Y-62207000I0J-150000D01*
G01*
X157882000Y-62507000D01*
G75*
G02*
X157732000Y-62657000I-150000J0D01*
G01*
X156082000Y-62657000D01*
G75*
G02*
X155932000Y-62507000I0J150000D01*
G01*
G37*
G36*
G01*
X155932000Y-63777000D02*
X155932000Y-63477000D01*
G75*
G02*
X156082000Y-63327000I150000J0D01*
G01*
X157732000Y-63327000D01*
G75*
G02*
X157882000Y-63477000I0J-150000D01*
G01*
X157882000Y-63777000D01*
G75*
G02*
X157732000Y-63927000I-150000J0D01*
G01*
X156082000Y-63927000D01*
G75*
G02*
X155932000Y-63777000I0J150000D01*
G01*
G37*
G36*
G01*
X155932000Y-65047000D02*
X155932000Y-64747000D01*
G75*
G02*
X156082000Y-64597000I150000J0D01*
G01*
X157732000Y-64597000D01*
G75*
G02*
X157882000Y-64747000I0J-150000D01*
G01*
X157882000Y-65047000D01*
G75*
G02*
X157732000Y-65197000I-150000J0D01*
G01*
X156082000Y-65197000D01*
G75*
G02*
X155932000Y-65047000I0J150000D01*
G01*
G37*
G36*
G01*
X155932000Y-66317000D02*
X155932000Y-66017000D01*
G75*
G02*
X156082000Y-65867000I150000J0D01*
G01*
X157732000Y-65867000D01*
G75*
G02*
X157882000Y-66017000I0J-150000D01*
G01*
X157882000Y-66317000D01*
G75*
G02*
X157732000Y-66467000I-150000J0D01*
G01*
X156082000Y-66467000D01*
G75*
G02*
X155932000Y-66317000I0J150000D01*
G01*
G37*
G36*
G01*
X150982000Y-66317000D02*
X150982000Y-66017000D01*
G75*
G02*
X151132000Y-65867000I150000J0D01*
G01*
X152782000Y-65867000D01*
G75*
G02*
X152932000Y-66017000I0J-150000D01*
G01*
X152932000Y-66317000D01*
G75*
G02*
X152782000Y-66467000I-150000J0D01*
G01*
X151132000Y-66467000D01*
G75*
G02*
X150982000Y-66317000I0J150000D01*
G01*
G37*
G36*
G01*
X150982000Y-65047000D02*
X150982000Y-64747000D01*
G75*
G02*
X151132000Y-64597000I150000J0D01*
G01*
X152782000Y-64597000D01*
G75*
G02*
X152932000Y-64747000I0J-150000D01*
G01*
X152932000Y-65047000D01*
G75*
G02*
X152782000Y-65197000I-150000J0D01*
G01*
X151132000Y-65197000D01*
G75*
G02*
X150982000Y-65047000I0J150000D01*
G01*
G37*
G36*
G01*
X150982000Y-63777000D02*
X150982000Y-63477000D01*
G75*
G02*
X151132000Y-63327000I150000J0D01*
G01*
X152782000Y-63327000D01*
G75*
G02*
X152932000Y-63477000I0J-150000D01*
G01*
X152932000Y-63777000D01*
G75*
G02*
X152782000Y-63927000I-150000J0D01*
G01*
X151132000Y-63927000D01*
G75*
G02*
X150982000Y-63777000I0J150000D01*
G01*
G37*
G36*
G01*
X150982000Y-62507000D02*
X150982000Y-62207000D01*
G75*
G02*
X151132000Y-62057000I150000J0D01*
G01*
X152782000Y-62057000D01*
G75*
G02*
X152932000Y-62207000I0J-150000D01*
G01*
X152932000Y-62507000D01*
G75*
G02*
X152782000Y-62657000I-150000J0D01*
G01*
X151132000Y-62657000D01*
G75*
G02*
X150982000Y-62507000I0J150000D01*
G01*
G37*
%TD*%
M02*
