%TF.GenerationSoftware,KiCad,Pcbnew,(5.1.9)-1*%
%TF.CreationDate,2021-03-15T23:27:25+01:00*%
%TF.ProjectId,fendt-teensy-aog-smd,66656e64-742d-4746-9565-6e73792d616f,rev?*%
%TF.SameCoordinates,Original*%
%TF.FileFunction,Paste,Bot*%
%TF.FilePolarity,Positive*%
%FSLAX46Y46*%
G04 Gerber Fmt 4.6, Leading zero omitted, Abs format (unit mm)*
G04 Created by KiCad (PCBNEW (5.1.9)-1) date 2021-03-15 23:27:25*
%MOMM*%
%LPD*%
G01*
G04 APERTURE LIST*
%ADD10R,2.300000X3.500000*%
%ADD11R,0.900000X0.800000*%
G04 APERTURE END LIST*
%TO.C,R1*%
G36*
G01*
X154235999Y-84220000D02*
X155136001Y-84220000D01*
G75*
G02*
X155386000Y-84469999I0J-249999D01*
G01*
X155386000Y-85170001D01*
G75*
G02*
X155136001Y-85420000I-249999J0D01*
G01*
X154235999Y-85420000D01*
G75*
G02*
X153986000Y-85170001I0J249999D01*
G01*
X153986000Y-84469999D01*
G75*
G02*
X154235999Y-84220000I249999J0D01*
G01*
G37*
G36*
G01*
X154235999Y-82220000D02*
X155136001Y-82220000D01*
G75*
G02*
X155386000Y-82469999I0J-249999D01*
G01*
X155386000Y-83170001D01*
G75*
G02*
X155136001Y-83420000I-249999J0D01*
G01*
X154235999Y-83420000D01*
G75*
G02*
X153986000Y-83170001I0J249999D01*
G01*
X153986000Y-82469999D01*
G75*
G02*
X154235999Y-82220000I249999J0D01*
G01*
G37*
%TD*%
%TO.C,R7*%
G36*
G01*
X88538000Y-71062001D02*
X88538000Y-70161999D01*
G75*
G02*
X88787999Y-69912000I249999J0D01*
G01*
X89488001Y-69912000D01*
G75*
G02*
X89738000Y-70161999I0J-249999D01*
G01*
X89738000Y-71062001D01*
G75*
G02*
X89488001Y-71312000I-249999J0D01*
G01*
X88787999Y-71312000D01*
G75*
G02*
X88538000Y-71062001I0J249999D01*
G01*
G37*
G36*
G01*
X86538000Y-71062001D02*
X86538000Y-70161999D01*
G75*
G02*
X86787999Y-69912000I249999J0D01*
G01*
X87488001Y-69912000D01*
G75*
G02*
X87738000Y-70161999I0J-249999D01*
G01*
X87738000Y-71062001D01*
G75*
G02*
X87488001Y-71312000I-249999J0D01*
G01*
X86787999Y-71312000D01*
G75*
G02*
X86538000Y-71062001I0J249999D01*
G01*
G37*
%TD*%
%TO.C,R8*%
G36*
G01*
X88538000Y-73602001D02*
X88538000Y-72701999D01*
G75*
G02*
X88787999Y-72452000I249999J0D01*
G01*
X89488001Y-72452000D01*
G75*
G02*
X89738000Y-72701999I0J-249999D01*
G01*
X89738000Y-73602001D01*
G75*
G02*
X89488001Y-73852000I-249999J0D01*
G01*
X88787999Y-73852000D01*
G75*
G02*
X88538000Y-73602001I0J249999D01*
G01*
G37*
G36*
G01*
X86538000Y-73602001D02*
X86538000Y-72701999D01*
G75*
G02*
X86787999Y-72452000I249999J0D01*
G01*
X87488001Y-72452000D01*
G75*
G02*
X87738000Y-72701999I0J-249999D01*
G01*
X87738000Y-73602001D01*
G75*
G02*
X87488001Y-73852000I-249999J0D01*
G01*
X86787999Y-73852000D01*
G75*
G02*
X86538000Y-73602001I0J249999D01*
G01*
G37*
%TD*%
%TO.C,C11*%
G36*
G01*
X124307000Y-76233000D02*
X124307000Y-77183000D01*
G75*
G02*
X124057000Y-77433000I-250000J0D01*
G01*
X123382000Y-77433000D01*
G75*
G02*
X123132000Y-77183000I0J250000D01*
G01*
X123132000Y-76233000D01*
G75*
G02*
X123382000Y-75983000I250000J0D01*
G01*
X124057000Y-75983000D01*
G75*
G02*
X124307000Y-76233000I0J-250000D01*
G01*
G37*
G36*
G01*
X122232000Y-76233000D02*
X122232000Y-77183000D01*
G75*
G02*
X121982000Y-77433000I-250000J0D01*
G01*
X121307000Y-77433000D01*
G75*
G02*
X121057000Y-77183000I0J250000D01*
G01*
X121057000Y-76233000D01*
G75*
G02*
X121307000Y-75983000I250000J0D01*
G01*
X121982000Y-75983000D01*
G75*
G02*
X122232000Y-76233000I0J-250000D01*
G01*
G37*
%TD*%
D10*
%TO.C,D1*%
X167132000Y-91600000D03*
X167132000Y-86200000D03*
%TD*%
D11*
%TO.C,D7*%
X171974000Y-63373000D03*
X173974000Y-64323000D03*
X173974000Y-62423000D03*
%TD*%
%TO.C,D8*%
X173974000Y-76393000D03*
X173974000Y-78293000D03*
X171974000Y-77343000D03*
%TD*%
%TO.C,D9*%
X171974000Y-70358000D03*
X173974000Y-71308000D03*
X173974000Y-69408000D03*
%TD*%
M02*
