%TF.GenerationSoftware,KiCad,Pcbnew,(5.1.9)-1*%
%TF.CreationDate,2021-03-15T23:27:25+01:00*%
%TF.ProjectId,fendt-teensy-aog-smd,66656e64-742d-4746-9565-6e73792d616f,rev?*%
%TF.SameCoordinates,Original*%
%TF.FileFunction,Soldermask,Bot*%
%TF.FilePolarity,Negative*%
%FSLAX46Y46*%
G04 Gerber Fmt 4.6, Leading zero omitted, Abs format (unit mm)*
G04 Created by KiCad (PCBNEW (5.1.9)-1) date 2021-03-15 23:27:25*
%MOMM*%
%LPD*%
G01*
G04 APERTURE LIST*
%ADD10C,1.600000*%
%ADD11R,1.600000X1.600000*%
%ADD12C,1.400000*%
%ADD13O,1.700000X1.950000*%
%ADD14R,2.300000X3.500000*%
%ADD15R,0.900000X0.800000*%
%ADD16C,3.200000*%
%ADD17R,2.500000X2.500000*%
%ADD18C,2.500000*%
%ADD19C,3.500000*%
%ADD20R,1.524000X1.524000*%
%ADD21C,1.524000*%
%ADD22O,2.600000X2.000000*%
%ADD23O,1.700000X2.000000*%
G04 APERTURE END LIST*
D10*
%TO.C,U1*%
X91440000Y-52832000D03*
X91440000Y-55372000D03*
X91440000Y-57912000D03*
X91440000Y-60452000D03*
X91440000Y-62992000D03*
X91440000Y-65532000D03*
X91440000Y-68072000D03*
X91440000Y-70612000D03*
X91440000Y-73152000D03*
X91440000Y-75692000D03*
X91440000Y-78232000D03*
X91440000Y-80772000D03*
X91440000Y-83312000D03*
X91440000Y-85852000D03*
D11*
X76200000Y-52832000D03*
D10*
X76200000Y-55372000D03*
X76200000Y-57912000D03*
X76200000Y-60452000D03*
X76200000Y-62992000D03*
X76200000Y-65532000D03*
X76200000Y-68072000D03*
X76200000Y-70612000D03*
X76200000Y-73152000D03*
X76200000Y-75692000D03*
X76200000Y-78232000D03*
X76200000Y-80772000D03*
X76200000Y-83312000D03*
X91440000Y-88392000D03*
X91440000Y-90932000D03*
X91440000Y-93472000D03*
X91440000Y-96012000D03*
X91440000Y-98552000D03*
X91440000Y-101092000D03*
X91440000Y-103632000D03*
X91440000Y-106172000D03*
X91440000Y-108712000D03*
X91440000Y-111252000D03*
X76200000Y-111252000D03*
X76200000Y-108712000D03*
X76200000Y-106172000D03*
X76200000Y-103632000D03*
X76200000Y-85852000D03*
X76200000Y-88392000D03*
X76200000Y-90932000D03*
X76200000Y-101092000D03*
X76200000Y-98552000D03*
X76200000Y-96012000D03*
X76200000Y-93472000D03*
%TD*%
D12*
%TO.C,U3*%
X99060000Y-88265000D03*
X101600000Y-88265000D03*
X99060000Y-90805000D03*
X101600000Y-90805000D03*
X99060000Y-93345000D03*
X101600000Y-93345000D03*
X99060000Y-95885000D03*
X101600000Y-95885000D03*
X99060000Y-98425000D03*
X101600000Y-98425000D03*
X99060000Y-100965000D03*
X101600000Y-100965000D03*
X99060000Y-103505000D03*
X101600000Y-103505000D03*
X99060000Y-106045000D03*
X101600000Y-106045000D03*
X99060000Y-108585000D03*
X101600000Y-108585000D03*
X99060000Y-111125000D03*
X101600000Y-111125000D03*
X124460000Y-88265000D03*
X127000000Y-88265000D03*
X124460000Y-90805000D03*
X127000000Y-90805000D03*
X124460000Y-93345000D03*
X127000000Y-93345000D03*
X124460000Y-95885000D03*
X127000000Y-95885000D03*
X124460000Y-98425000D03*
X127000000Y-98425000D03*
X124460000Y-100965000D03*
X127000000Y-100965000D03*
X124460000Y-103505000D03*
X127000000Y-103505000D03*
X124460000Y-106045000D03*
X127000000Y-106045000D03*
X124460000Y-108585000D03*
X127000000Y-108585000D03*
X127000000Y-111125000D03*
X124460000Y-111125000D03*
%TD*%
%TO.C,J9*%
G36*
G01*
X110070000Y-54901000D02*
X110070000Y-56351000D01*
G75*
G02*
X109820000Y-56601000I-250000J0D01*
G01*
X108620000Y-56601000D01*
G75*
G02*
X108370000Y-56351000I0J250000D01*
G01*
X108370000Y-54901000D01*
G75*
G02*
X108620000Y-54651000I250000J0D01*
G01*
X109820000Y-54651000D01*
G75*
G02*
X110070000Y-54901000I0J-250000D01*
G01*
G37*
D13*
X106720000Y-55626000D03*
X104220000Y-55626000D03*
X101720000Y-55626000D03*
X99220000Y-55626000D03*
X96720000Y-55626000D03*
%TD*%
%TO.C,R1*%
G36*
G01*
X154235999Y-84220000D02*
X155136001Y-84220000D01*
G75*
G02*
X155386000Y-84469999I0J-249999D01*
G01*
X155386000Y-85170001D01*
G75*
G02*
X155136001Y-85420000I-249999J0D01*
G01*
X154235999Y-85420000D01*
G75*
G02*
X153986000Y-85170001I0J249999D01*
G01*
X153986000Y-84469999D01*
G75*
G02*
X154235999Y-84220000I249999J0D01*
G01*
G37*
G36*
G01*
X154235999Y-82220000D02*
X155136001Y-82220000D01*
G75*
G02*
X155386000Y-82469999I0J-249999D01*
G01*
X155386000Y-83170001D01*
G75*
G02*
X155136001Y-83420000I-249999J0D01*
G01*
X154235999Y-83420000D01*
G75*
G02*
X153986000Y-83170001I0J249999D01*
G01*
X153986000Y-82469999D01*
G75*
G02*
X154235999Y-82220000I249999J0D01*
G01*
G37*
%TD*%
%TO.C,R7*%
G36*
G01*
X88538000Y-71062001D02*
X88538000Y-70161999D01*
G75*
G02*
X88787999Y-69912000I249999J0D01*
G01*
X89488001Y-69912000D01*
G75*
G02*
X89738000Y-70161999I0J-249999D01*
G01*
X89738000Y-71062001D01*
G75*
G02*
X89488001Y-71312000I-249999J0D01*
G01*
X88787999Y-71312000D01*
G75*
G02*
X88538000Y-71062001I0J249999D01*
G01*
G37*
G36*
G01*
X86538000Y-71062001D02*
X86538000Y-70161999D01*
G75*
G02*
X86787999Y-69912000I249999J0D01*
G01*
X87488001Y-69912000D01*
G75*
G02*
X87738000Y-70161999I0J-249999D01*
G01*
X87738000Y-71062001D01*
G75*
G02*
X87488001Y-71312000I-249999J0D01*
G01*
X86787999Y-71312000D01*
G75*
G02*
X86538000Y-71062001I0J249999D01*
G01*
G37*
%TD*%
%TO.C,R8*%
G36*
G01*
X88538000Y-73602001D02*
X88538000Y-72701999D01*
G75*
G02*
X88787999Y-72452000I249999J0D01*
G01*
X89488001Y-72452000D01*
G75*
G02*
X89738000Y-72701999I0J-249999D01*
G01*
X89738000Y-73602001D01*
G75*
G02*
X89488001Y-73852000I-249999J0D01*
G01*
X88787999Y-73852000D01*
G75*
G02*
X88538000Y-73602001I0J249999D01*
G01*
G37*
G36*
G01*
X86538000Y-73602001D02*
X86538000Y-72701999D01*
G75*
G02*
X86787999Y-72452000I249999J0D01*
G01*
X87488001Y-72452000D01*
G75*
G02*
X87738000Y-72701999I0J-249999D01*
G01*
X87738000Y-73602001D01*
G75*
G02*
X87488001Y-73852000I-249999J0D01*
G01*
X86787999Y-73852000D01*
G75*
G02*
X86538000Y-73602001I0J249999D01*
G01*
G37*
%TD*%
D11*
%TO.C,C1*%
X161036000Y-91694000D03*
D10*
X161036000Y-86694000D03*
%TD*%
D11*
%TO.C,C2*%
X133350000Y-84074000D03*
D10*
X133350000Y-80574000D03*
%TD*%
%TO.C,C11*%
G36*
G01*
X124307000Y-76233000D02*
X124307000Y-77183000D01*
G75*
G02*
X124057000Y-77433000I-250000J0D01*
G01*
X123382000Y-77433000D01*
G75*
G02*
X123132000Y-77183000I0J250000D01*
G01*
X123132000Y-76233000D01*
G75*
G02*
X123382000Y-75983000I250000J0D01*
G01*
X124057000Y-75983000D01*
G75*
G02*
X124307000Y-76233000I0J-250000D01*
G01*
G37*
G36*
G01*
X122232000Y-76233000D02*
X122232000Y-77183000D01*
G75*
G02*
X121982000Y-77433000I-250000J0D01*
G01*
X121307000Y-77433000D01*
G75*
G02*
X121057000Y-77183000I0J250000D01*
G01*
X121057000Y-76233000D01*
G75*
G02*
X121307000Y-75983000I250000J0D01*
G01*
X121982000Y-75983000D01*
G75*
G02*
X122232000Y-76233000I0J-250000D01*
G01*
G37*
%TD*%
D14*
%TO.C,D1*%
X167132000Y-91600000D03*
X167132000Y-86200000D03*
%TD*%
D15*
%TO.C,D7*%
X171974000Y-63373000D03*
X173974000Y-64323000D03*
X173974000Y-62423000D03*
%TD*%
%TO.C,D8*%
X173974000Y-76393000D03*
X173974000Y-78293000D03*
X171974000Y-77343000D03*
%TD*%
%TO.C,D9*%
X171974000Y-70358000D03*
X173974000Y-71308000D03*
X173974000Y-69408000D03*
%TD*%
D16*
%TO.C,H1*%
X69930000Y-110562000D03*
%TD*%
%TO.C,H2*%
X175930000Y-110562000D03*
%TD*%
%TO.C,H3*%
X69930000Y-52562000D03*
%TD*%
%TO.C,H4*%
X175930000Y-52562000D03*
%TD*%
D17*
%TO.C,J1*%
X170942000Y-91440000D03*
D18*
X170942000Y-86440000D03*
%TD*%
%TO.C,J2*%
G36*
G01*
X124040000Y-54901000D02*
X124040000Y-56351000D01*
G75*
G02*
X123790000Y-56601000I-250000J0D01*
G01*
X122590000Y-56601000D01*
G75*
G02*
X122340000Y-56351000I0J250000D01*
G01*
X122340000Y-54901000D01*
G75*
G02*
X122590000Y-54651000I250000J0D01*
G01*
X123790000Y-54651000D01*
G75*
G02*
X124040000Y-54901000I0J-250000D01*
G01*
G37*
D13*
X120690000Y-55626000D03*
X118190000Y-55626000D03*
X115690000Y-55626000D03*
%TD*%
D19*
%TO.C,J3*%
X128741000Y-62568000D03*
X141881000Y-62568000D03*
D20*
X138811000Y-65278000D03*
D21*
X136311000Y-65278000D03*
X134311000Y-65278000D03*
X131811000Y-65278000D03*
%TD*%
D13*
%TO.C,J4*%
X115690000Y-62992000D03*
X118190000Y-62992000D03*
X120690000Y-62992000D03*
G36*
G01*
X124040000Y-62267000D02*
X124040000Y-63717000D01*
G75*
G02*
X123790000Y-63967000I-250000J0D01*
G01*
X122590000Y-63967000D01*
G75*
G02*
X122340000Y-63717000I0J250000D01*
G01*
X122340000Y-62267000D01*
G75*
G02*
X122590000Y-62017000I250000J0D01*
G01*
X123790000Y-62017000D01*
G75*
G02*
X124040000Y-62267000I0J-250000D01*
G01*
G37*
%TD*%
%TO.C,J5*%
G36*
G01*
X170214000Y-80248000D02*
X168114000Y-80248000D01*
G75*
G02*
X167864000Y-79998000I0J250000D01*
G01*
X167864000Y-78498000D01*
G75*
G02*
X168114000Y-78248000I250000J0D01*
G01*
X170214000Y-78248000D01*
G75*
G02*
X170464000Y-78498000I0J-250000D01*
G01*
X170464000Y-79998000D01*
G75*
G02*
X170214000Y-80248000I-250000J0D01*
G01*
G37*
D22*
X169164000Y-75748000D03*
X169164000Y-72248000D03*
X169164000Y-68748000D03*
X169164000Y-65248000D03*
X169164000Y-61748000D03*
%TD*%
D23*
%TO.C,J6*%
X111800000Y-70231000D03*
G36*
G01*
X115150000Y-69481000D02*
X115150000Y-70981000D01*
G75*
G02*
X114900000Y-71231000I-250000J0D01*
G01*
X113700000Y-71231000D01*
G75*
G02*
X113450000Y-70981000I0J250000D01*
G01*
X113450000Y-69481000D01*
G75*
G02*
X113700000Y-69231000I250000J0D01*
G01*
X114900000Y-69231000D01*
G75*
G02*
X115150000Y-69481000I0J-250000D01*
G01*
G37*
%TD*%
D13*
%TO.C,J7*%
X96720000Y-62992000D03*
X99220000Y-62992000D03*
X101720000Y-62992000D03*
X104220000Y-62992000D03*
X106720000Y-62992000D03*
G36*
G01*
X110070000Y-62267000D02*
X110070000Y-63717000D01*
G75*
G02*
X109820000Y-63967000I-250000J0D01*
G01*
X108620000Y-63967000D01*
G75*
G02*
X108370000Y-63717000I0J250000D01*
G01*
X108370000Y-62267000D01*
G75*
G02*
X108620000Y-62017000I250000J0D01*
G01*
X109820000Y-62017000D01*
G75*
G02*
X110070000Y-62267000I0J-250000D01*
G01*
G37*
%TD*%
%TO.C,J8*%
G36*
G01*
X124060000Y-69482000D02*
X124060000Y-70982000D01*
G75*
G02*
X123810000Y-71232000I-250000J0D01*
G01*
X122610000Y-71232000D01*
G75*
G02*
X122360000Y-70982000I0J250000D01*
G01*
X122360000Y-69482000D01*
G75*
G02*
X122610000Y-69232000I250000J0D01*
G01*
X123810000Y-69232000D01*
G75*
G02*
X124060000Y-69482000I0J-250000D01*
G01*
G37*
D23*
X120710000Y-70232000D03*
%TD*%
M02*
