M48
; DRILL file {KiCad (5.1.9)-1} date 03/15/21 23:27:34
; FORMAT={-:-/ absolute / inch / decimal}
; #@! TF.CreationDate,2021-03-15T23:27:34+01:00
; #@! TF.GenerationSoftware,Kicad,Pcbnew,(5.1.9)-1
FMAT,2
INCH
T1C0.0157
T2C0.0197
T3C0.0276
T4C0.0315
T5C0.0362
T6C0.0374
T7C0.0394
T8C0.0433
T9C0.0512
T10C0.0630
T11C0.0906
T12C0.1260
%
G90
G05
T1
X3.8Y-3.24
X3.9062Y-2.8315
X3.96Y-2.8315
X4.0475Y-3.6275
X4.07Y-3.03
X4.1Y-3.07
X4.17Y-2.64
X4.2227Y-2.7127
X4.29Y-2.65
X4.3375Y-2.6429
X4.38Y-2.65
X4.4243Y-2.59
X5.4632Y-2.066
X5.52Y-2.17
X5.61Y-3.0
X5.6671Y-2.27
X5.69Y-2.9204
X5.72Y-2.0837
X5.77Y-2.85
X5.7846Y-2.1678
X5.8Y-2.64
X5.8732Y-3.2997
X5.9028Y-2.2662
X5.9028Y-2.5024
X5.99Y-2.37
X6.03Y-3.49
X6.05Y-3.12
X6.0602Y-2.2269
X6.13Y-2.37
X6.3654Y-2.3843
X6.3654Y-2.6698
X6.4244Y-2.2072
T2
X5.5735Y-3.3
X5.6522Y-3.2213
X5.6522Y-3.3
X5.6522Y-3.3787
X5.7309Y-3.3
T3
X3.3043Y-4.0772
X5.9028Y-2.778
T4
X3.9Y-3.475
X3.9Y-3.575
X3.9Y-3.675
X3.9Y-3.775
X3.9Y-3.875
X3.9Y-3.975
X3.9Y-4.075
X3.9Y-4.175
X3.9Y-4.275
X3.9Y-4.375
X4.0Y-3.475
X4.0Y-3.575
X4.0Y-3.675
X4.0Y-3.775
X4.0Y-3.875
X4.0Y-3.975
X4.0Y-4.075
X4.0Y-4.175
X4.0Y-4.275
X4.0Y-4.375
X4.9Y-3.475
X4.9Y-3.575
X4.9Y-3.675
X4.9Y-3.775
X4.9Y-3.875
X4.9Y-3.975
X4.9Y-4.075
X4.9Y-4.175
X4.9Y-4.275
X4.9Y-4.375
X5.0Y-3.475
X5.0Y-3.575
X5.0Y-3.675
X5.0Y-3.775
X5.0Y-3.875
X5.0Y-3.975
X5.0Y-4.075
X5.0Y-4.175
X5.0Y-4.275
X5.0Y-4.375
X5.25Y-3.1722
X5.25Y-3.31
X6.34Y-3.4131
X6.34Y-3.61
T5
X5.1894Y-2.57
X5.2878Y-2.57
X5.3666Y-2.57
X5.465Y-2.57
T6
X3.8079Y-2.19
X3.8079Y-2.48
X3.9063Y-2.19
X3.9063Y-2.48
X4.0047Y-2.19
X4.0047Y-2.48
X4.1031Y-2.19
X4.1031Y-2.48
X4.2016Y-2.19
X4.2016Y-2.48
X4.3Y-2.19
X4.3Y-2.48
X4.5547Y-2.19
X4.5547Y-2.48
X4.6531Y-2.19
X4.6531Y-2.48
X4.7516Y-2.19
X4.7516Y-2.48
X4.85Y-2.19
X4.85Y-2.48
T7
X4.4016Y-2.765
X4.5Y-2.765
X4.7524Y-2.765
X4.8508Y-2.765
T8
X3.0Y-2.08
X3.0Y-2.18
X3.0Y-2.28
X3.0Y-2.38
X3.0Y-2.48
X3.0Y-2.58
X3.0Y-2.68
X3.0Y-2.78
X3.0Y-2.88
X3.0Y-2.98
X3.0Y-3.08
X3.0Y-3.18
X3.0Y-3.28
X3.0Y-3.38
X3.0Y-3.48
X3.0Y-3.58
X3.0Y-3.68
X3.0Y-3.78
X3.0Y-3.88
X3.0Y-3.98
X3.0Y-4.08
X3.0Y-4.18
X3.0Y-4.28
X3.0Y-4.38
X3.6Y-2.08
X3.6Y-2.18
X3.6Y-2.28
X3.6Y-2.38
X3.6Y-2.48
X3.6Y-2.58
X3.6Y-2.68
X3.6Y-2.78
X3.6Y-2.88
X3.6Y-2.98
X3.6Y-3.08
X3.6Y-3.18
X3.6Y-3.28
X3.6Y-3.38
X3.6Y-3.48
X3.6Y-3.58
X3.6Y-3.68
X3.6Y-3.78
X3.6Y-3.88
X3.6Y-3.98
X3.6Y-4.08
X3.6Y-4.18
X3.6Y-4.28
X3.6Y-4.38
T9
X6.73Y-3.4031
X6.73Y-3.6
T10
X6.66Y-2.431
X6.66Y-2.5688
X6.66Y-2.7066
X6.66Y-2.8444
X6.66Y-2.9822
X6.66Y-3.12
T11
X5.0685Y-2.4633
X5.5859Y-2.4633
T12
X2.7531Y-2.0694
X2.7531Y-4.3528
X6.9264Y-2.0694
X6.9264Y-4.3528
T0
M30
